<svg id="g10" xmlns="http://www.w3.org/2000/svg" width="60" height="61.364" viewBox="0 0 60 61.364">
  <g id="g12" transform="translate(0 0)">
    <path id="path14" d="M500.926-295.037h6.435a1.5,1.5,0,0,0,1.051-.436,1.5,1.5,0,0,0,.439-1.055v-6.431a1.5,1.5,0,0,0-.439-1.055,1.492,1.492,0,0,0-1.051-.437h-6.435a1.493,1.493,0,0,0-1.053.437,1.508,1.508,0,0,0-.437,1.055v6.431a1.5,1.5,0,0,0,.437,1.055,1.5,1.5,0,0,0,1.053.436" transform="translate(-459.079 348.975)" fill="#fa7025"/>
    <path id="path16" d="M500.926-422.822h6.435a1.486,1.486,0,0,0,1.051-.438,1.5,1.5,0,0,0,.439-1.054v-6.433a1.5,1.5,0,0,0-.439-1.053,1.493,1.493,0,0,0-1.051-.438h-6.435a1.494,1.494,0,0,0-1.053.438,1.5,1.5,0,0,0-.437,1.053v6.433a1.5,1.5,0,0,0,.437,1.054,1.487,1.487,0,0,0,1.053.438" transform="translate(-459.079 460.948)" fill="#fa7025"/>
    <path id="path18" d="M378.5-422.822h6.435a1.483,1.483,0,0,0,1.052-.438,1.5,1.5,0,0,0,.439-1.054v-6.433a1.5,1.5,0,0,0-.439-1.053,1.49,1.49,0,0,0-1.052-.438H378.5a1.5,1.5,0,0,0-1.053.438,1.5,1.5,0,0,0-.437,1.053v6.433a1.5,1.5,0,0,0,.437,1.054,1.493,1.493,0,0,0,1.053.438" transform="translate(-351.723 460.948)" fill="#fa7025"/>
    <path id="path20" d="M256.113-295.037h6.428a1.5,1.5,0,0,0,1.055-.436,1.5,1.5,0,0,0,.437-1.055v-6.431a1.508,1.508,0,0,0-.437-1.055,1.5,1.5,0,0,0-1.055-.437h-6.428a1.5,1.5,0,0,0-1.055.437,1.5,1.5,0,0,0-.439,1.055v6.431a1.5,1.5,0,0,0,.439,1.055,1.5,1.5,0,0,0,1.055.436" transform="translate(-244.391 348.975)" fill="#fa7025"/>
    <path id="path22" d="M227.418-554.641H175.6V-586.9h51.821Zm3.49-49.243a2.048,2.048,0,0,0-1.444-.6h-7.818v3.048a6.506,6.506,0,0,1-6.5,6.511,6.508,6.508,0,0,1-6.5-6.511v-3.048h-14.27v3.048a6.506,6.506,0,0,1-6.5,6.511,6.506,6.506,0,0,1-6.5-6.511v-3.048h-7.815a2.052,2.052,0,0,0-1.446.6,2.057,2.057,0,0,0-.6,1.448v49.844a2.057,2.057,0,0,0,.6,1.448,2.06,2.06,0,0,0,1.446.6h55.91a2.056,2.056,0,0,0,1.444-.6,2.057,2.057,0,0,0,.6-1.448v-49.844a2.057,2.057,0,0,0-.6-1.448" transform="translate(-171.508 611.909)" fill="#fa7025"/>
    <path id="path24" d="M256.113-422.822h6.428a1.493,1.493,0,0,0,1.055-.438,1.5,1.5,0,0,0,.437-1.054v-6.433a1.5,1.5,0,0,0-.437-1.053,1.5,1.5,0,0,0-1.055-.438h-6.428a1.5,1.5,0,0,0-1.055.438,1.5,1.5,0,0,0-.439,1.053v6.433a1.5,1.5,0,0,0,.439,1.054,1.491,1.491,0,0,0,1.055.438" transform="translate(-244.391 460.948)" fill="#fa7025"/>
    <path id="path26" d="M378.5-295.037h6.435a1.492,1.492,0,0,0,1.052-.436,1.5,1.5,0,0,0,.439-1.055v-6.431a1.5,1.5,0,0,0-.439-1.055,1.489,1.489,0,0,0-1.052-.437H378.5a1.5,1.5,0,0,0-1.053.437,1.508,1.508,0,0,0-.437,1.055v6.431a1.5,1.5,0,0,0,.437,1.055,1.5,1.5,0,0,0,1.053.436" transform="translate(-351.723 348.975)" fill="#fa7025"/>
    <path id="path28" d="M280.154-651.7a3.4,3.4,0,0,0,3.4-3.4v-7.038a3.4,3.4,0,0,0-3.4-3.4,3.4,3.4,0,0,0-3.4,3.4v7.038a3.4,3.4,0,0,0,3.4,3.4" transform="translate(-263.809 665.538)" fill="#fa7025"/>
    <path id="path30" d="M502.2-651.7a3.4,3.4,0,0,0,3.4-3.4v-7.038a3.4,3.4,0,0,0-3.4-3.4,3.4,3.4,0,0,0-3.4,3.4v7.038a3.4,3.4,0,0,0,3.4,3.4" transform="translate(-458.543 665.538)" fill="#fa7025"/>
  </g>
</svg>
