<svg id="g10" xmlns="http://www.w3.org/2000/svg" width="60" height="52.673" viewBox="0 0 60 52.673">
  <g id="g12" transform="translate(0 0)">
    <path id="path14" d="M136.066-659.1c0-10.133,10.488-18.379,23.378-18.379,11.015,0,20.265,6.016,22.74,14.078a14.456,14.456,0,0,1,.649,4.3c0,10.133-10.488,18.378-23.39,18.378a28.32,28.32,0,0,1-9.741-1.691,24.381,24.381,0,0,1-3.32-1.458,1.28,1.28,0,0,0-1.225.037l-5.93,3.663,2.879-5.379a1.231,1.231,0,0,0-.257-1.495,16.3,16.3,0,0,1-5.783-12.056Zm-1.152,21.785a1.21,1.21,0,0,0,.233,1.47,1.227,1.227,0,0,0,.845.331,1.2,1.2,0,0,0,.637-.184l9.226-5.685a28.42,28.42,0,0,0,5.44,2.046c3.761,5.722,11.26,9.63,19.861,9.63a26.622,26.622,0,0,0,12.093-2.83l8.405,5.183a.649.649,0,0,0,.331.1.628.628,0,0,0,.417-.172.632.632,0,0,0,.122-.735l-4.252-7.915a16.061,16.061,0,0,0,5.342-11.64c0-5.734-3.345-10.843-8.564-14.139-1.666-10.182-12.51-18.072-25.607-18.072-14.237,0-25.828,9.349-25.828,20.829a18.475,18.475,0,0,0,5.893,13.22l-4.595,8.564" transform="translate(-133.616 679.929)" fill="#fa7025"/>
    <path id="path16" d="M252.711-489.483a2.833,2.833,0,0,0,2.833-2.833,2.833,2.833,0,0,0-2.833-2.833,2.833,2.833,0,0,0-2.833,2.833,2.833,2.833,0,0,0,2.833,2.833" transform="translate(-238.071 513.9)" fill="#fa7025"/>
    <path id="path18" d="M365.267-489.483a2.833,2.833,0,0,0,2.833-2.833,2.833,2.833,0,0,0-2.833-2.833,2.833,2.833,0,0,0-2.833,2.833,2.833,2.833,0,0,0,2.833,2.833" transform="translate(-339.195 513.9)" fill="#fa7025"/>
    <path id="path20" d="M477.824-489.483a2.833,2.833,0,0,0,2.833-2.833,2.833,2.833,0,0,0-2.833-2.833,2.833,2.833,0,0,0-2.833,2.833,2.833,2.833,0,0,0,2.833,2.833" transform="translate(-440.321 513.9)" fill="#fa7025"/>
  </g>
</svg>
