<svg id="g10" xmlns="http://www.w3.org/2000/svg" width="60" height="71.061" viewBox="0 0 60 71.061">
  <g id="g12" transform="translate(0 0)">
    <path id="path14" d="M429.635-234.826c3.491,0,7.141-.514,9.439-1.595a9.42,9.42,0,0,1-1.429,3.147,7.971,7.971,0,0,1-.828,1,7.785,7.785,0,0,1-1.256,1,10.513,10.513,0,0,1-5.927,1.552,11.256,11.256,0,0,1-6.215-1.552,7.187,7.187,0,0,1-1.227-1,7.2,7.2,0,0,1-.813-1,8.694,8.694,0,0,1-1.279-3.189C422.389-235.35,426.1-234.826,429.635-234.826Zm9.795-4.307c0,.67-3.433,2.313-9.795,2.313s-9.795-1.642-9.795-2.313,3.433-2.312,9.795-2.312S439.43-239.805,439.43-239.133Zm-18.936,12-2.1-4.153h2.022c2.006,2.3,5.135,3.546,9.222,3.546,4.482,0,7.244-1.571,8.967-3.546h1.626l2.1,4.153Zm24.256.363-3.019-5.962a.994.994,0,0,0-.889-.546h-.879a13.554,13.554,0,0,0,1.459-5.859c0-2.958-6.109-4.307-11.787-4.307s-11.787,1.348-11.787,4.307a13.1,13.1,0,0,0,1.228,5.859h-2.307a.991.991,0,0,0-.849.474,1,1,0,0,0-.04.972l3.112,6.145a1,1,0,0,0,.89.548h24.072a.044.044,0,0,1,.027,0,1,1,0,0,0,1-1,.991.991,0,0,0-.228-.633" transform="translate(-384.977 296.195)" fill="#fa7025"/>
    <path id="path16" d="M130.853-143.752c.7,5.035,4.113,7.684,9.984,7.684,7.327,0,9.362-4.68,9.918-7.644-2.091,1.242-6.019,1.883-9.918,1.883-3.941,0-7.912-.654-9.984-1.923" transform="translate(-130.712 206.647)" fill="#fa7025"/>
    <path id="path18" d="M177.54-739.385v12.749c-4.73-1.255-10.418-7.672-12.863-12.749ZM139.9-718.977c5.8-2.8,16.664-13.57,17.325-20.407h2.984c.661,6.838,11.527,17.6,17.326,20.41v23H144.908v-.539a.685.685,0,0,0-.687-.686.687.687,0,0,0-.687.686v.539H139.9Zm0-7.658v-12.749h12.862C150.323-734.308,144.634-727.891,139.9-726.636Zm5,42.4v-8.495h34.257a1.623,1.623,0,0,0,1.625-1.621v-46.66a1.625,1.625,0,0,0-1.625-1.621H138.279a1.623,1.623,0,0,0-1.625,1.621v46.66a1.622,1.622,0,0,0,1.625,1.621h5.254v8.315c-.717-.077-1.481-.134-2.29-.161v-5.1a.686.686,0,0,0-.687-.686.687.687,0,0,0-.687.686v5.08a33.727,33.727,0,0,0-3.513.18v-7.213a.686.686,0,0,0-.687-.686.686.686,0,0,0-.687.686v7.393c-3.466.539-5.521,1.578-5.521,2.368,0,1.113,4.077,2.729,10.467,2.729s10.467-1.616,10.467-2.729c0-.787-2.04-1.821-5.487-2.362" transform="translate(-129.46 742.63)" fill="#fa7025"/>
  </g>
</svg>
