<svg id="g10" xmlns="http://www.w3.org/2000/svg" width="60" height="57.695" viewBox="0 0 60 57.695">
  <g id="g12" transform="translate(0 0)">
    <path id="path14" d="M259.922-519.22v-5.073h7.86v5.073Zm13.632,7.625H258.14v-1.494a2.265,2.265,0,0,0-.582-1.493h16Zm-33.282,8.253v-2.212h16.7v2.212ZM223.69-514.582h16a2.265,2.265,0,0,0-.582,1.493v1.494H223.69Zm5.774-9.711h7.86v5.073h-7.86Zm0-4.032v-3.286h38.317v3.286Zm25.732,9.1a2.321,2.321,0,0,0-2.32,2.318v1.493h-8.508V-516.9a2.321,2.321,0,0,0-2.32-2.318h-1.7v-5.073H256.9v5.073Zm-10.828,9.945v-1.5h8.508v1.5a2.262,2.262,0,0,0,.143.7h-8.794A2.262,2.262,0,0,0,244.368-509.275ZM277.7-538.708c-9.893-.893-11.41-14.079-11.418-14.108v-2.576a1,1,0,0,0-1.005-1.007H231.963a1,1,0,0,0-1.005,1.007l0,2.47c-.012.135-1.506,13.319-11.422,14.214a1.011,1.011,0,0,0-.918,1.006v3.772a1.009,1.009,0,0,0,1.009,1.009h5.195v13.7h-3.454a2.319,2.319,0,0,0-2.32,2.318v7.627a2.319,2.319,0,0,0,2.32,2.316h14.262v5.936a2.321,2.321,0,0,0,2.32,2.318H259.29a2.321,2.321,0,0,0,2.32-2.318v-5.936h14.262a2.319,2.319,0,0,0,2.32-2.316V-516.9a2.32,2.32,0,0,0-2.32-2.318H272.42v-13.7h5.193a1.009,1.009,0,0,0,1.009-1.009V-537.7a1.011,1.011,0,0,0-.918-1.006" transform="translate(-218.622 556.399)" fill="#fa7025"/>
  </g>
</svg>
