<svg xmlns="http://www.w3.org/2000/svg" width="60" height="45.762" viewBox="0 0 60 45.762">
  <g id="g12" transform="translate(0 0)">
    <path id="path14" d="M275.212-408.435,257.4-416.823v8.7a1.565,1.565,0,0,0,.834,1.389l16.911,8.934a1.542,1.542,0,0,0,1.443,0l16.911-8.934a1.565,1.565,0,0,0,.834-1.389v-8.7l-17.808,8.388a1.538,1.538,0,0,1-1.315,0" transform="translate(-245.87 439.459)" fill="#fa7025"/>
    <path id="path16" d="M293.561-310.925l-16.91,8.934-.36.09-.36-.09-16.91-8.934a.776.776,0,0,0-1.051.331.788.788,0,0,0,.328,1.058l16.911,8.934a2.314,2.314,0,0,0,1.083.269,2.314,2.314,0,0,0,1.083-.269l16.911-8.934a.786.786,0,0,0,.327-1.058.774.774,0,0,0-1.049-.331" transform="translate(-246.292 346.095)" fill="#fa7025"/>
    <path id="path18" d="M218.443-597.881,190-611.159a1.556,1.556,0,0,0-1.319,0l-28.439,13.278a1.559,1.559,0,0,0-.9,1.413,1.558,1.558,0,0,0,.9,1.413l4.951,2.312v17.12l-1.514,3.02a.784.784,0,0,0,0,.7l1.6,3.185a.78.78,0,0,0,.7.43.78.78,0,0,0,.7-.43l1.6-3.185a.783.783,0,0,0,0-.7l-1.516-3.02v-16.392l21.928,10.238a1.556,1.556,0,0,0,1.319,0l28.441-13.278a1.558,1.558,0,0,0,.9-1.413,1.558,1.558,0,0,0-.9-1.413" transform="translate(-159.344 611.305)" fill="#fa7025"/>
  </g>
</svg>
